<svg width="48" height="48" viewBox="0 0 48 48" fill="none" xmlns="http://www.w3.org/2000/svg">
<g clip-path="url(#clip0_13085_609)">
<path d="M33.3225 16.8233C31.6838 -0.802441 21.9525 2.23056 18.111 5.52831C14.271 8.82531 15.1178 17.9806 15.1178 17.9806L15.1463 18.2828L16.596 18.1973L16.5713 17.9221C16.5487 17.6028 16.5903 17.2823 16.6935 16.9793L16.4475 16.9928L16.4273 16.7528C16.4273 16.7528 15.7493 9.42906 18.8198 6.78981C21.8895 4.15206 29.6745 1.72356 30.987 15.8273L31.1273 17.3348L33.1905 17.2126C33.2445 17.1976 33.2998 17.1833 33.3563 17.1698C33.3443 17.0543 33.3338 16.9411 33.3225 16.8218" fill="#919192"/>
<path d="M7.82326 13.3546C7.68601 13.3553 7.55401 13.3703 7.42726 13.3778C7.32226 13.4221 7.21651 13.4588 7.10251 13.4881C6.95401 13.6103 6.77101 13.7723 6.55876 13.9831C6.40287 14.2066 6.21571 14.4067 6.00301 14.5771C3.68101 17.2501 -0.467237 24.4351 0.0427628 41.3228C0.0427628 41.3228 22.6628 50.2936 33.8078 47.6911C33.8078 47.6911 38.3453 34.8286 38.4353 34.5443C38.523 34.2578 40.0448 15.1771 40.0448 15.1771C40.0448 15.1771 15.3998 12.8551 7.81951 13.3546" fill="#9E6A36"/>
<path d="M1.77001 23.8545H1.81426C1.81426 23.8545 1.79626 23.8605 1.76401 23.8755C1.74826 23.925 1.73401 23.9782 1.71976 24.0285C1.87126 24.031 2.02751 24.035 2.18851 24.0405C10.0335 24.1882 32.9835 27.5887 38.9835 28.497C39.4433 22.9057 40.0028 15.879 40.0028 15.879C40.0028 15.879 15.36 13.5562 7.78201 14.0557C7.56976 14.0692 7.37251 14.0827 7.18351 14.094C6.31726 14.763 3.61201 17.2965 1.76701 23.8515" fill="#7B4F29"/>
<path d="M6.55949 13.984C6.52349 14.038 6.48424 14.091 6.44174 14.143C6.66824 14.1295 6.91424 14.113 7.18724 14.0942C7.36274 13.9555 7.46249 13.897 7.46249 13.897L6.55949 13.984Z" fill="#7B4F29"/>
<path d="M7.82324 13.3546C7.68599 13.3554 7.55399 13.3704 7.42724 13.3779C7.32195 13.4228 7.21338 13.4597 7.10249 13.4881C6.95349 13.6101 6.77174 13.7756 6.55724 13.9846C6.4032 14.2069 6.21748 14.4055 6.00599 14.5741C4.79924 15.9646 3.09599 18.5791 1.80899 23.1496H1.85474C1.85474 23.1496 1.83749 23.1556 1.80524 23.1729C1.79024 23.2231 1.77374 23.2764 1.76099 23.3266L2.22824 23.3356C10.074 23.4856 33.0232 26.8869 39.0232 27.7944C39.4807 22.2031 40.044 15.1764 40.044 15.1764C40.044 15.1764 15.3997 12.8551 7.81949 13.3546" fill="#8E5D2F"/>
<path d="M32.52 48.0224C32.52 48.0224 44.1757 45.3847 48.0915 40.1242C48.0915 40.1242 45.4762 12.4289 38.0017 15.1642C30.528 17.8934 31.7212 41.3234 32.52 48.0247" fill="#60401C"/>
<path d="M29.0505 20.1938C32.0655 2.74878 21.8782 3.13728 17.31 5.31978C12.7447 7.50378 11.1772 16.5615 11.1772 16.5615L11.124 16.8608L12.5475 17.1555L12.5947 16.8825C12.6517 16.5743 12.7807 16.2765 12.957 16.0043L12.7155 15.9525L12.7597 15.7155C12.7597 15.7155 14.0137 8.46678 17.667 6.72228C21.3217 4.97628 29.469 4.66503 27.057 18.6218C26.9655 19.1625 26.88 19.656 26.7997 20.1143L28.8202 20.5358H28.992C29.013 20.4268 29.0325 20.3128 29.0505 20.1938Z" fill="#8D8D8E"/>
<path d="M28.7175 20.1937C31.7325 2.74865 21.5415 3.1379 16.9762 5.3204C12.411 7.5044 10.8427 16.5622 10.8427 16.5622L10.788 16.8614L12.21 17.1562L12.2602 16.8832C12.3208 16.5693 12.4435 16.2707 12.621 16.0049L12.378 15.9532L12.4222 15.7162C12.4222 15.7162 13.6777 8.4674 17.3317 6.7229C20.982 4.9769 29.1322 4.66566 26.7217 18.6224C26.6287 19.1632 26.5417 19.6567 26.4652 20.1149L28.4835 20.5364H28.6567L28.7175 20.1937Z" fill="#BBBDBF"/>
</g>
<defs>
<clipPath id="clip0_13085_609">
<rect width="48" height="48" fill="white"/>
</clipPath>
</defs>
</svg>
