<svg width="50" height="49" viewBox="0 0 50 49" fill="none" xmlns="http://www.w3.org/2000/svg">
<path d="M35.473 18.375H37.2878C40.2821 18.375 41.7792 18.375 42.7094 19.2145C43.6396 20.0539 43.6396 21.405 43.6396 24.1072V38.8146C43.6396 41.172 43.6396 42.3507 42.801 42.7558C41.9623 43.1608 40.8756 42.507 38.702 41.1994L36.5226 39.8881C35.3261 39.1683 34.7279 38.8084 34.0497 38.6239C33.3715 38.4394 32.6525 38.4409 31.2146 38.4441L21.4234 38.4653C18.4226 38.4718 16.9221 38.4751 15.9892 37.6352C15.0563 36.7953 15.0563 35.4412 15.0563 32.7331L15.0563 27.5625M35.473 11.8572V20.4831C35.473 23.1912 35.473 24.5453 34.5401 25.3852C33.6072 26.2251 32.1067 26.2218 29.1059 26.2153L19.3147 26.1941C17.8768 26.1909 17.1578 26.1894 16.4796 26.3739C15.8014 26.5584 15.2032 26.9183 14.0067 27.6381L11.8273 28.9494C9.65375 30.257 8.56699 30.9108 7.72832 30.5058C6.88965 30.1007 6.88965 28.922 6.88965 26.5646V11.8572C6.88965 9.15502 6.88965 7.80393 7.81986 6.96446C8.75006 6.125 10.2472 6.125 13.2415 6.125H29.1211C32.1154 6.125 33.6126 6.125 34.5428 6.96446C35.473 7.80393 35.473 9.15503 35.473 11.8572Z" stroke="#D46A6A" stroke-width="3" stroke-linecap="round" stroke-linejoin="round"/>
</svg>
