<svg width="47" height="42" viewBox="0 0 47 42" fill="none" xmlns="http://www.w3.org/2000/svg">
<rect x="0.4" y="0.4" width="46.2" height="41.2" rx="14.6" fill="#F4F1EE"/>
<rect x="0.4" y="0.4" width="46.2" height="41.2" rx="14.6" stroke="#D46A6A" stroke-width="0.8"/>
<path fill-rule="evenodd" clip-rule="evenodd" d="M19.3095 14.1904C19.888 14.1904 20.3571 14.6595 20.3571 15.238V17.3333C20.3571 17.9119 19.888 18.3809 19.3095 18.3809C18.7309 18.3809 18.2618 17.9119 18.2618 17.3333V15.238C18.2618 14.6595 18.7309 14.1904 19.3095 14.1904Z" stroke="#D46A6A" stroke-width="1.3" stroke-linecap="round" stroke-linejoin="round"/>
<path d="M31.8809 16.2861H20.3571" stroke="#D46A6A" stroke-width="1.3" stroke-linecap="round" stroke-linejoin="round"/>
<path d="M18.2619 16.2861H15.119" stroke="#D46A6A" stroke-width="1.3" stroke-linecap="round" stroke-linejoin="round"/>
<path fill-rule="evenodd" clip-rule="evenodd" d="M19.3095 24.667C19.888 24.667 20.3571 25.136 20.3571 25.7146V27.8098C20.3571 28.3884 19.888 28.8575 19.3095 28.8575C18.7309 28.8575 18.2618 28.3884 18.2618 27.8098V25.7146C18.2618 25.136 18.7309 24.667 19.3095 24.667Z" stroke="#D46A6A" stroke-width="1.3" stroke-linecap="round" stroke-linejoin="round"/>
<path d="M31.8809 26.7617H20.3571" stroke="#D46A6A" stroke-width="1.3" stroke-linecap="round" stroke-linejoin="round"/>
<path d="M18.2619 26.7617H15.119" stroke="#D46A6A" stroke-width="1.3" stroke-linecap="round" stroke-linejoin="round"/>
<path fill-rule="evenodd" clip-rule="evenodd" d="M27.6904 19.4287C28.269 19.4287 28.7381 19.8977 28.7381 20.4763V22.5716C28.7381 23.1502 28.269 23.6192 27.6904 23.6192C27.1119 23.6192 26.6428 23.1502 26.6428 22.5716V20.4763C26.6428 19.8977 27.1119 19.4287 27.6904 19.4287Z" stroke="#D46A6A" stroke-width="1.3" stroke-linecap="round" stroke-linejoin="round"/>
<path d="M26.6428 21.5234H15.119" stroke="#D46A6A" stroke-width="1.3" stroke-linecap="round" stroke-linejoin="round"/>
<path d="M31.8809 21.5234H28.738" stroke="#D46A6A" stroke-width="1.3" stroke-linecap="round" stroke-linejoin="round"/>
</svg>
