<svg width="24" height="24" viewBox="0 0 24 24" fill="none" xmlns="http://www.w3.org/2000/svg">
<g clip-path="url(#clip0_13979_2049)">
<path d="M22.9163 10.4411L22.9147 10.4395L13.5011 0.647628C13.0999 0.229973 12.5664 0 11.999 0C11.4315 0 10.898 0.229832 10.4966 0.64744L1.08797 10.4343C1.08481 10.4376 1.08166 10.4411 1.0785 10.4444C0.254492 11.3065 0.255934 12.7051 1.08256 13.565C1.46017 13.9581 1.95898 14.1857 2.49228 14.2095C2.51391 14.2117 2.53577 14.2128 2.55777 14.2128H2.93295V21.4191C2.93295 22.8451 4.0483 24.0053 5.41949 24.0053H9.10233C9.47562 24.0053 9.77841 23.6905 9.77841 23.302V17.6523C9.77841 17.0016 10.2873 16.4723 10.9128 16.4723H13.0851C13.7107 16.4723 14.2195 17.0017 14.2195 17.6523V23.302C14.2195 23.6905 14.5221 24.0053 14.8955 24.0053H18.5784C19.9496 24.0053 21.065 22.8451 21.065 21.4191V14.2128H21.4129C21.9802 14.2128 22.5136 13.983 22.9152 13.5654C23.7427 12.7041 23.7431 11.303 22.9163 10.4411Z" fill="#7C7C7C"/>
</g>
<defs>
<clipPath id="clip0_13979_2049">
<rect width="23.0769" height="24.0053" fill="white" transform="translate(0.46154)"/>
</clipPath>
</defs>
</svg>
