<svg width="48" height="48" viewBox="0 0 48 48" fill="none" xmlns="http://www.w3.org/2000/svg">
<path d="M18 27H30V42H18V27Z" fill="url(#paint0_linear_13084_603)"/>
<path d="M26.061 6.81881C25.504 6.2922 24.7665 5.99878 24 5.99878C23.2335 5.99878 22.496 6.2922 21.939 6.81881L7.407 20.5588C6.96241 20.9795 6.60833 21.4865 6.3664 22.0488C6.12448 22.611 5.9998 23.2167 6 23.8288V37.5358C6 38.7293 6.47411 39.8739 7.31802 40.7178C8.16193 41.5617 9.30653 42.0358 10.5 42.0358H19.5V30.0358C19.5 29.638 19.658 29.2564 19.9393 28.9751C20.2206 28.6938 20.6022 28.5358 21 28.5358H27C27.3978 28.5358 27.7794 28.6938 28.0607 28.9751C28.342 29.2564 28.5 29.638 28.5 30.0358V42.0358H37.5C38.6935 42.0358 39.8381 41.5617 40.682 40.7178C41.5259 39.8739 42 38.7293 42 37.5358V23.8258C41.9998 23.2135 41.8747 22.6077 41.6322 22.0454C41.3898 21.4831 41.0351 20.9763 40.59 20.5558L26.061 6.81881Z" fill="url(#paint1_linear_13084_603)"/>
<path fill-rule="evenodd" clip-rule="evenodd" d="M24.012 7.9079L41.205 24.1379C41.4199 24.3408 41.6727 24.4994 41.9489 24.6046C42.2251 24.7098 42.5193 24.7596 42.8147 24.7511C43.1101 24.7426 43.401 24.676 43.6707 24.5551C43.9404 24.4341 44.1836 24.2613 44.3865 24.0464C44.5894 23.8315 44.748 23.5787 44.8532 23.3025C44.9584 23.0263 45.0082 22.7321 44.9997 22.4367C44.9912 22.1413 44.9246 21.8504 44.8037 21.5807C44.6828 21.311 44.5099 21.0678 44.295 20.8649L26.58 4.1459C25.8801 3.48477 24.9526 3.11819 23.9898 3.1221C23.027 3.12601 22.1026 3.5001 21.408 4.1669L3.69 21.1769C3.27915 21.5942 3.04718 22.1553 3.04338 22.7409C3.03959 23.3265 3.26426 23.8905 3.66967 24.3131C4.07509 24.7357 4.62929 24.9836 5.21455 25.0041C5.79981 25.0246 6.37001 24.8161 6.804 24.4229L24.012 7.9079Z" fill="url(#paint2_linear_13084_603)"/>
<defs>
<linearGradient id="paint0_linear_13084_603" x1="24" y1="27" x2="14.388" y2="44.094" gradientUnits="userSpaceOnUse">
<stop stop-color="#944600"/>
<stop offset="1" stop-color="#CD8E02"/>
</linearGradient>
<linearGradient id="paint1_linear_13084_603" x1="9.435" y1="4.23881" x2="44.79" y2="32.9428" gradientUnits="userSpaceOnUse">
<stop stop-color="#FFD394"/>
<stop offset="1" stop-color="#FFB357"/>
</linearGradient>
<linearGradient id="paint2_linear_13084_603" x1="30.786" y1="-2.0881" x2="20.835" y2="23.6849" gradientUnits="userSpaceOnUse">
<stop stop-color="#FF921F"/>
<stop offset="1" stop-color="#EB4824"/>
</linearGradient>
</defs>
</svg>
