<svg width="25" height="24" viewBox="0 0 25 24" fill="none" xmlns="http://www.w3.org/2000/svg">
<path d="M7.82967 2.61094C7.82967 1.17127 6.6584 0 5.21873 0C1.75495 0.143438 1.75593 5.079 5.21873 5.22188C6.65845 5.22188 7.82967 4.05061 7.82967 2.61094Z" fill="#D46A6A"/>
<path d="M9.68752 10.4938V9.69066C9.44133 3.76073 0.993984 3.76533 0.75 9.69061V10.4937C0.75 10.882 1.06481 11.1968 1.45312 11.1968H8.98439C9.3727 11.1969 9.68752 10.8821 9.68752 10.4938ZM22.8922 2.61094C22.8922 1.17127 21.7209 0 20.2813 0C16.8175 0.143438 16.8185 5.079 20.2813 5.22188C21.7209 5.22188 22.8922 4.05061 22.8922 2.61094ZM20.2813 5.22188C17.8172 5.22188 15.8125 7.22658 15.8125 9.69061V10.4937C15.8125 10.882 16.1273 11.1968 16.5157 11.1968H24.0469C24.4352 11.1968 24.75 10.882 24.75 10.4937V9.69061C24.75 7.22658 22.7453 5.22188 20.2813 5.22188ZM5.16877 12.7531C5.16877 12.703 5.1697 12.6531 5.17064 12.6031H3.76439C3.70842 15.6172 5.16952 18.3403 7.43208 19.9985C7.6333 19.5717 7.88511 19.1705 8.18208 18.8038C6.3517 17.4198 5.16877 15.2247 5.16877 12.7531ZM9.64706 5.83411C11.5172 4.9583 13.9828 4.9583 15.8529 5.83411C16.187 5.45096 16.5689 5.11241 16.9894 4.82681C14.5006 3.4253 10.9995 3.42534 8.51062 4.82681C8.93108 5.11244 9.31303 5.45099 9.64706 5.83411ZM20.3294 12.6031C20.384 15.1151 19.1856 17.3969 17.3179 18.8038C17.6149 19.1705 17.8667 19.5717 18.0679 19.9985C20.3304 18.3404 21.7916 15.6171 21.7356 12.6031H20.3294ZM15.3609 15.414C15.3609 13.9744 14.1897 12.8031 12.75 12.8031C9.28622 12.9465 9.2872 17.8821 12.75 18.025C14.1897 18.025 15.3609 16.8538 15.3609 15.414ZM12.75 18.025C10.2859 18.025 8.28127 20.0297 8.28127 22.4937V23.2969C8.28127 23.6852 8.59608 24 8.98439 24H16.5157C16.904 24 17.2188 23.6852 17.2188 23.2969V22.4938C17.2187 20.0297 15.2141 18.025 12.75 18.025Z" fill="#D46A6A"/>
</svg>
