<svg width="51" height="51" viewBox="0 0 51 51" fill="none" xmlns="http://www.w3.org/2000/svg">
<path d="M40.375 36.125V40.375H14.875V36.125C14.875 36.125 14.875 27.625 27.625 27.625C40.375 27.625 40.375 36.125 40.375 36.125ZM34 17C34 15.7391 33.6261 14.5066 32.9256 13.4582C32.2251 12.4099 31.2295 11.5928 30.0646 11.1103C28.8997 10.6278 27.6179 10.5015 26.3813 10.7475C25.1447 10.9935 24.0088 11.6006 23.1172 12.4922C22.2256 13.3838 21.6185 14.5197 21.3725 15.7563C21.1265 16.9929 21.2528 18.2747 21.7353 19.4396C22.2178 20.6045 23.0349 21.6001 24.0832 22.3006C25.1316 23.0011 26.3641 23.375 27.625 23.375C29.3158 23.375 30.9373 22.7034 32.1328 21.5078C33.3284 20.3123 34 18.6908 34 17ZM40.8 27.7525C41.9616 28.8241 42.8981 30.1164 43.5548 31.5539C44.2115 32.9914 44.5753 34.5454 44.625 36.125V40.375H51V36.125C51 36.125 51 28.7938 40.8 27.7525ZM38.25 10.625C37.6079 10.625 36.9698 10.7254 36.3587 10.9225C37.602 12.7053 38.2686 14.8265 38.2686 17C38.2686 19.1735 37.602 21.2947 36.3587 23.0775C36.9698 23.2746 37.6079 23.375 38.25 23.375C39.9408 23.375 41.5623 22.7034 42.7578 21.5078C43.9534 20.3123 44.625 18.6908 44.625 17C44.625 15.3092 43.9534 13.6877 42.7578 12.4922C41.5623 11.2967 39.9408 10.625 38.25 10.625ZM17 21.25H10.625V14.875H6.375V21.25H0V25.5H6.375V31.875H10.625V25.5H17V21.25Z" fill="#D46A6A"/>
</svg>
