<svg width="24" height="24" viewBox="0 0 24 24" fill="none" xmlns="http://www.w3.org/2000/svg">
    <path d="M8.99699 12C8.99699 12.663 8.7336 13.2989 8.26476 13.7678C7.79592 14.2366 7.16003 14.5 6.49699 14.5C5.83395 14.5 5.19807 14.2366 4.72923 13.7678C4.26039 13.2989 3.99699 12.663 3.99699 12C3.99699 11.337 4.26039 10.7011 4.72923 10.2322C5.19807 9.76339 5.83395 9.5 6.49699 9.5C7.16003 9.5 7.79592 9.76339 8.26476 10.2322C8.7336 10.7011 8.99699 11.337 8.99699 12Z" stroke="#D46A6A" stroke-width="2"/>
    <path d="M14 6.5L9 10M14 17.5L9 14" stroke="#D46A6A" stroke-width="2" stroke-linecap="round"/>
    <path d="M18.994 18.5C18.994 19.163 18.7306 19.7989 18.2618 20.2678C17.7929 20.7366 17.157 21 16.494 21C15.8309 21 15.1951 20.7366 14.7262 20.2678C14.2574 19.7989 13.994 19.163 13.994 18.5C13.994 17.837 14.2574 17.2011 14.7262 16.7322C15.1951 16.2634 15.8309 16 16.494 16C17.157 16 17.7929 16.2634 18.2618 16.7322C18.7306 17.2011 18.994 17.837 18.994 18.5ZM18.994 5.5C18.994 6.16304 18.7306 6.79893 18.2618 7.26777C17.7929 7.73661 17.157 8 16.494 8C15.8309 8 15.1951 7.73661 14.7262 7.26777C14.2574 6.79893 13.994 6.16304 13.994 5.5C13.994 4.83696 14.2574 4.20107 14.7262 3.73223C15.1951 3.26339 15.8309 3 16.494 3C17.157 3 17.7929 3.26339 18.2618 3.73223C18.7306 4.20107 18.994 4.83696 18.994 5.5Z" stroke="#D46A6A" stroke-width="2"/>
</svg>
