<svg width="161" height="155" viewBox="0 0 161 155" fill="none" xmlns="http://www.w3.org/2000/svg">
<path opacity="0.5" fill-rule="evenodd" clip-rule="evenodd" d="M1.57532 106.636C10.6953 132.965 42.4301 155 81.0901 155C119.75 155 160.09 140.615 160.09 101.955C160.09 63.2947 120.571 0 81.9106 0C43.2507 0 -7.54468 80.3078 1.57532 106.636Z" fill="#FAE6F2"/>
<path fill-rule="evenodd" clip-rule="evenodd" d="M20.3503 133C20.3503 133 11.047 104.398 37.9482 95.7975C64.8493 87.1972 65.1771 66.0943 87.6553 64.1171C110.133 62.1396 109.984 85.7485 128.815 94.5645C147.645 103.38 148.991 128.314 141.667 133H20.3503Z" fill="#FAE6F2"/>
<path fill-rule="evenodd" clip-rule="evenodd" d="M128.795 133C128.795 133 123.445 125.971 115.077 128.099C115.077 128.099 110.551 122.776 100.717 124.262C90.882 125.747 85.795 133 85.795 133H128.795Z" fill="#659922"/>
<path fill-rule="evenodd" clip-rule="evenodd" d="M127.687 134C127.484 133.743 122.629 127.719 115.076 129.592C114.585 129.713 114.064 129.553 113.737 129.178C113.569 128.99 109.405 124.46 100.299 125.801C90.9377 127.179 86.0135 133.89 85.9649 133.957L83.795 132.5C84.02 132.187 89.4283 124.819 99.9011 123.277C108.617 121.994 113.553 125.507 115.168 126.952C124.015 125.209 129.557 132.155 129.795 132.46L127.685 133.998L128.74 133.229L127.687 134Z" fill="#700043"/>
<path fill-rule="evenodd" clip-rule="evenodd" d="M99.9026 101H63.6877C61.5379 101 59.795 99.2675 59.795 97.13V24.87C59.795 22.7328 61.5379 21 63.6877 21H99.9026C102.052 21 103.795 22.7328 103.795 24.87V97.13C103.795 99.2675 102.052 101 99.9026 101Z" fill="#C7B199"/>
<path fill-rule="evenodd" clip-rule="evenodd" d="M63.9331 22.5968C62.5315 22.5968 61.3913 23.7374 61.3913 25.1394V96.8603C61.3913 98.2623 62.5315 99.4029 63.9331 99.4029H99.6573C101.059 99.4029 102.199 98.2623 102.199 96.8603V25.1394C102.199 23.7374 101.059 22.5968 99.6573 22.5968H63.9331ZM99.6573 102H63.9331C61.1 102 58.795 99.6943 58.795 96.8603V25.1394C58.795 22.3055 61.1 20 63.9331 20H99.6573C102.49 20 104.795 22.3055 104.795 25.1394V96.8603C104.795 99.6943 102.49 102 99.6573 102Z" fill="#700043"/>
<path fill-rule="evenodd" clip-rule="evenodd" d="M63.795 92H98.795V30H63.795V92Z" fill="#FAE6F2"/>
<path fill-rule="evenodd" clip-rule="evenodd" d="M64.3811 91.4249H98.2092V30.5751H64.3811V91.4249ZM99.0021 93H63.5882C63.1501 93 62.795 92.6474 62.795 92.2123V29.7874C62.795 29.3526 63.1501 29 63.5882 29H99.0021C99.44 29 99.795 29.3526 99.795 29.7874V92.2123C99.795 92.6474 99.44 93 99.0021 93Z" fill="#700043"/>
<path fill-rule="evenodd" clip-rule="evenodd" d="M90.7582 85H71.8319C70.1617 85 68.795 83.5861 68.795 81.8582V81.1418C68.795 79.4139 70.1617 78 71.8319 78H90.7582C92.4286 78 93.795 79.4139 93.795 81.1418V81.8582C93.795 83.5861 92.4286 85 90.7582 85Z" fill="#ED4C67"/>
<path fill-rule="evenodd" clip-rule="evenodd" d="M91.402 78C91.4202 78.14 91.4305 78.2825 91.4305 78.4273V79.1512C91.4305 80.8975 90.0623 82.326 88.3902 82.326H69.4423C69.2202 82.326 69.0039 82.3001 68.795 82.2524C68.9966 83.7983 70.2735 85 71.8069 85H90.7548C92.4271 85 93.795 83.5712 93.795 81.8251V81.1013C93.795 79.5869 92.7658 78.3119 91.402 78Z" fill="#D83F60"/>
<path fill-rule="evenodd" clip-rule="evenodd" d="M71.669 78.4859C70.3985 78.4859 69.365 79.4641 69.365 80.6666V81.3332C69.365 82.5359 70.3985 83.5141 71.669 83.5141H90.9209C92.1916 83.5141 93.2251 82.5359 93.2251 81.3332V80.6666C93.2251 79.4641 92.1916 78.4859 90.9209 78.4859H71.669ZM90.9209 85H71.669C69.5329 85 67.795 83.355 67.795 81.3332V80.6666C67.795 78.6448 69.5329 77 71.669 77H90.9209C93.057 77 94.795 78.6448 94.795 80.6666V81.3332C94.795 83.355 93.057 85 90.9209 85Z" fill="#700043"/>
<path fill-rule="evenodd" clip-rule="evenodd" d="M72.795 70.5C72.795 71.8809 76.6008 73 81.2952 73C85.9896 73 89.795 71.8809 89.795 70.5C89.795 69.1194 85.9896 68 81.2952 68C76.6008 68 72.795 69.1194 72.795 70.5Z" fill="#DC54A6"/>
<path fill-rule="evenodd" clip-rule="evenodd" d="M81.795 68.5784C76.9528 68.5784 74.3407 69.9424 74.3407 70.5C74.3407 71.0579 76.9528 72.4219 81.795 72.4219C86.6371 72.4219 89.2494 71.0579 89.2494 70.5C89.2494 69.9424 86.6371 68.5784 81.795 68.5784ZM81.795 74C77.4603 74 72.795 72.9048 72.795 70.5C72.795 68.0955 77.4603 67 81.795 67C86.1296 67 90.795 68.0955 90.795 70.5C90.795 72.9048 86.1296 74 81.795 74Z" fill="#700043"/>
<path fill-rule="evenodd" clip-rule="evenodd" d="M75.5729 47.6172C75.5729 44.4217 78.1345 41.8312 81.295 41.8312C84.4551 41.8312 87.0172 44.4217 87.0172 47.6172C87.0172 50.8128 84.4551 53.4032 81.295 53.4032C78.1345 53.4032 75.5729 50.8128 75.5729 47.6172ZM70.795 47.6172C70.795 48.8923 71.0176 50.1147 71.4251 51.2475L76.398 60.6236L81.3314 70L86.265 60.6236L91.1648 51.2475C91.5725 50.1147 91.795 48.8923 91.795 47.6172C91.795 41.7537 87.0938 37 81.295 37C75.496 37 70.795 41.7537 70.795 47.6172Z" fill="#ED4C67"/>
<path fill-rule="evenodd" clip-rule="evenodd" d="M81.295 42.5564C78.5691 42.5564 76.3515 44.774 76.3515 47.5C76.3515 50.226 78.5691 52.4436 81.295 52.4436C84.021 52.4436 86.2386 50.226 86.2386 47.5C86.2386 44.774 84.021 42.5564 81.295 42.5564ZM81.295 54C77.7109 54 74.795 51.0842 74.795 47.5C74.795 43.9158 77.7109 41 81.295 41C84.8792 41 87.795 43.9158 87.795 47.5C87.795 51.0842 84.8792 54 81.295 54Z" fill="#700043"/>
<path fill-rule="evenodd" clip-rule="evenodd" d="M71.958 50.469L77.001 59.6398L81.3322 67.5786L85.6625 59.642L90.6313 50.4712C91.014 49.4284 91.2079 48.3331 91.2079 47.2148C91.2079 41.8845 86.761 37.5478 81.2952 37.5478C75.8291 37.5478 71.3822 41.8845 71.3822 47.2148C71.3822 48.3323 71.5758 49.4267 71.958 50.469ZM81.3322 70C81.039 70 80.7695 69.8421 80.6318 69.5896L75.6012 60.3689L70.532 51.1505C70.5141 51.1181 70.4985 51.0841 70.4856 51.0495C70.0275 49.8218 69.795 48.5317 69.795 47.2148C69.795 41.0311 74.954 36 81.2952 36C87.6361 36 92.795 41.0311 92.795 47.2148C92.795 48.5317 92.5628 49.8218 92.1047 51.0495C92.0921 51.0827 92.0775 51.1151 92.0606 51.1464L87.0645 60.3669L82.0329 69.5896C81.895 69.8421 81.6257 70 81.3322 70Z" fill="#700043"/>
<path fill-rule="evenodd" clip-rule="evenodd" d="M61.3053 102.459C65.7631 91.7822 60.0671 79.7397 59.2003 75.0219C58.3335 70.3042 62.4198 67.9454 62.6674 58.0134C62.9151 48.0814 57.7144 48.2055 56.3523 49.8195C54.9902 51.4334 53.0089 60.4964 49.2941 66.2073C45.5793 71.9182 44.5886 98.9829 44.5886 98.9829L22.795 133H57.5905L67.992 115.495C67.992 115.495 77.8982 114.962 88.795 101.634L61.3053 102.459Z" fill="#EDB182"/>
<path fill-rule="evenodd" clip-rule="evenodd" d="M57.8365 61.6066C61.1737 55.9604 58.8634 49.5563 58.8634 49.5563C59.0028 49.2913 59.1642 49.1082 59.3429 49C61.0238 49.789 62.6028 52.1889 62.4611 57.631C62.2044 67.4899 57.9687 69.8314 58.8672 74.5144C59.7167 78.9413 65.0374 89.8655 61.7138 100C61.7136 99.9998 59.1201 83.5201 56.4247 78.0976C53.7293 72.6752 54.4994 67.2528 57.8365 61.6066Z" fill="#F4BC84"/>
<path fill-rule="evenodd" clip-rule="evenodd" d="M85.795 102C85.795 102 79.302 106.351 71.8032 106.943C63.2124 107.622 61.795 102 61.795 102H85.795Z" fill="#F4BC84"/>
<path fill-rule="evenodd" clip-rule="evenodd" d="M22.0995 134C21.8581 134 21.6137 133.933 21.3951 133.792C20.7885 133.402 20.6125 132.592 21.0023 131.984L42.7135 98.1129C42.8748 93.9956 43.9478 70.554 47.6403 64.8805C49.7747 61.6005 51.3792 56.9958 52.5508 53.6337C53.582 50.674 54.152 49.0919 54.831 48.2877C55.8543 47.0757 57.7111 46.6652 59.3464 47.2887C60.9688 47.9073 63.6635 50.0434 63.48 57.3966C63.3406 62.9853 62.0536 66.2536 61.0196 68.8798C60.1877 70.9917 59.6384 72.3868 59.9742 74.2129C60.1457 75.1457 60.5437 76.4657 61.0047 77.9939C62.7692 83.8426 65.7219 93.6314 62.0102 102.517C61.7317 103.184 60.9666 103.498 60.3017 103.218C59.6364 102.94 59.323 102.173 59.6016 101.506C62.9509 93.4885 60.2756 84.6198 58.5051 78.7512C58.0218 77.1479 57.6038 75.7631 57.406 74.6868C56.9348 72.1236 57.7022 70.1753 58.5905 67.9193C59.5488 65.4853 60.7418 62.4563 60.8697 57.331C61.0223 51.208 59.0316 49.9683 58.4178 49.7341C57.7017 49.461 57.0433 49.7182 56.8245 49.9778C56.426 50.4495 55.6771 52.5993 55.016 54.4962C53.8003 57.9852 52.1354 62.7633 49.8275 66.3097C46.9267 70.7665 45.5826 91.1064 45.3093 98.5676C45.3009 98.8018 45.2297 99.0295 45.1032 99.2268L23.1994 133.399C22.9498 133.788 22.5291 134 22.0995 134Z" fill="#700043"/>
<path fill-rule="evenodd" clip-rule="evenodd" d="M57.1006 134C56.8731 134 56.6427 133.941 56.4332 133.816C55.8132 133.448 55.61 132.648 55.9794 132.029L66.4416 114.509C66.6645 114.136 67.0591 113.898 67.494 113.875C67.5775 113.87 75.9833 113.22 85.6377 102.607H61.5443C60.8226 102.607 60.2375 102.024 60.2375 101.304C60.2375 100.584 60.8226 100 61.5443 100H88.4884C88.9935 100 89.4534 100.291 89.6693 100.746C89.8856 101.201 89.8191 101.74 89.499 102.13C79.8561 113.865 70.9246 116.012 68.3561 116.397L58.2245 133.363C57.9799 133.773 57.546 134 57.1006 134Z" fill="#700043"/>
<path fill-rule="evenodd" clip-rule="evenodd" d="M98.6444 63.3331C97.239 64.3395 96.7722 66.2567 97.5588 67.7928C98.4869 69.6058 100.785 70.0927 103.708 69.0948C106.476 68.1499 108.087 66.7474 108.365 65.0392C108.589 63.6692 107.891 62.3034 107.121 61.714C105.713 60.6365 99.977 62.3788 98.6444 63.3331ZM100.956 72C98.1234 72 96.2929 70.5596 95.4357 68.8853C94.1127 66.3013 94.896 63.0775 97.2574 61.3863H97.2576C98.7366 60.3272 105.769 57.6678 108.57 59.813C109.882 60.8182 111.115 63.0031 110.72 65.4252C110.421 67.2624 109.094 69.7834 104.477 71.3595C103.168 71.8062 101.995 72 100.956 72Z" fill="#700043"/>
<path fill-rule="evenodd" clip-rule="evenodd" d="M88.8914 106.141C88.8914 106.141 83.863 101.848 78.6392 100.727C70.899 99.0664 66.8402 103.662 69.7262 105.794C72.4061 107.773 82.3412 113.555 83.7703 119.129C84.9885 123.88 90.3031 126.375 94.0083 127.777C98.1585 129.348 101.158 132.883 101.158 132.883L136.795 133L133.387 119.23C133.387 119.23 130.501 100.173 125.231 93.0272C121.949 88.576 116.573 90.269 116.698 92.2749C116.698 92.2749 114.063 88.1375 109.17 87.6362C104.276 87.1346 105.154 90.3944 105.154 90.3944C105.154 90.3944 104.276 87.3852 98.5036 86.5076C92.7315 85.6303 93.8608 91.0211 93.8608 91.0211C93.8608 91.0211 85.2027 66.6989 83.4459 62.9377C81.6892 59.1766 76.2934 58.2989 75.7917 64.693C75.2896 71.087 92.2295 114.09 92.2295 114.09L88.8914 106.141Z" fill="#EDB182"/>
<path fill-rule="evenodd" clip-rule="evenodd" d="M78.9791 60.0459C78.8488 60.3574 78.7799 60.7166 78.7979 61.1371C78.7979 61.1371 80.6763 60.9645 84.334 71.113C87.9915 81.2612 90.569 91.4029 93.795 90.9877C93.795 90.9877 85.2629 66.6911 83.5317 62.9339C82.6087 60.9306 80.6665 59.7471 78.9791 60.0459Z" fill="#F4BC84"/>
<path fill-rule="evenodd" clip-rule="evenodd" d="M95.9847 124.773C91.4748 122.76 87.2299 119.069 85.3825 112.862C83.5353 106.655 78.7262 102.598 81.1048 101.929C83.7914 101.174 90.5381 109.359 90.5381 109.359C90.5381 109.359 88.5975 104.187 89.4707 106.533C89.469 106.53 82.5195 101.234 77.2288 100.248C69.6029 98.8259 67.0568 103.892 69.9656 106.04C72.6666 108.034 82.7759 114.121 84.2166 119.739C85.4444 124.528 90.4193 126.432 94.1537 127.845C98.3366 129.429 101.36 132.992 101.36 132.992L103.795 133C103.193 131.928 100.035 126.581 95.9847 124.773Z" fill="#F4BC84"/>
<path fill-rule="evenodd" clip-rule="evenodd" d="M137.476 133C136.898 133 136.367 132.62 136.206 132.042L132.754 119.612C132.74 119.563 132.729 119.513 132.722 119.462C132.693 119.276 129.807 100.727 124.764 93.9555C122.971 91.548 120.724 91.6387 120.078 91.7239C119.123 91.8495 118.647 92.2467 118.564 92.3955C118.585 93.094 118.043 93.6885 117.333 93.7342C116.612 93.7807 115.981 93.2389 115.932 92.5218C115.901 92.2233 115.475 89.4251 110.531 89.1922C107.304 89.0418 106.99 90.3455 106.96 90.5866C106.997 91.2915 106.46 91.883 105.745 91.9365C105.03 91.9889 104.404 91.45 104.336 90.7436C104.287 90.5093 103.669 88.1336 98.9167 87.9954C97.9 87.9651 96.558 88.0903 95.9307 88.8514C95.2826 89.6378 95.5647 90.862 95.5677 90.8741C95.7285 91.5477 95.3306 92.2342 94.6593 92.4298C93.9875 92.625 93.2808 92.2742 93.0465 91.622C92.9598 91.3807 84.3434 67.4253 82.6238 63.7796C81.9596 62.3715 80.5402 61.4307 79.3901 61.6355C78.3066 61.8297 77.5946 63.0841 77.4366 65.0775C77.0422 70.0528 87.8557 98.4968 92.0559 109.037C92.3227 109.707 91.9903 110.464 91.313 110.728C90.6365 110.992 89.8708 110.663 89.604 109.993C88.0356 106.057 74.2956 71.352 74.8091 64.8737C75.1769 60.2344 77.8066 59.2693 78.9203 59.0697C81.2657 58.6492 83.8277 60.1663 85.0119 62.677C86.3693 65.5542 91.6077 79.9084 94.1463 86.9174C95.2087 85.8399 96.8351 85.3254 98.9941 85.3888C102.606 85.4939 104.588 86.692 105.67 87.89C106.794 86.9226 108.47 86.4844 110.656 86.5876C114.423 86.765 116.535 88.2718 117.612 89.8285C117.864 89.6836 118.141 89.5558 118.441 89.4482C120.891 88.5668 124.452 89.1405 126.886 92.4087C132.196 99.5387 135.079 117.475 135.315 118.995L138.748 131.351C138.941 132.045 138.528 132.762 137.826 132.953C137.71 132.985 137.592 133 137.476 133Z" fill="#700043"/>
<path fill-rule="evenodd" clip-rule="evenodd" d="M101.48 134C101.217 134 100.951 133.922 100.72 133.76C100.649 133.711 93.6314 128.797 90.6859 127.703C87.2358 126.421 84.5217 122.271 81.8163 117.765C80.0643 114.848 77.1275 112.858 74.2874 110.933C73.0656 110.105 71.9116 109.324 70.8476 108.472C68.3479 106.47 67.3122 104.21 68.006 102.27C68.7459 100.202 71.2689 99.0104 74.9278 99.0002L74.9694 99C83.8379 99 91.4007 106.937 92.0803 109.106C92.2947 109.79 91.9064 110.516 91.2131 110.728C90.5198 110.94 89.7844 110.556 89.5698 109.872C89.0909 108.525 82.57 101.593 74.9702 101.593H74.9353C72.0534 101.601 70.7364 102.428 70.4839 103.133C70.1909 103.952 70.9646 105.226 72.5032 106.458C73.4858 107.245 74.5977 107.998 75.7747 108.796C78.7065 110.782 82.0295 113.034 84.0771 116.443C85.9339 119.536 88.7399 124.209 91.6121 125.276C94.875 126.489 101.943 131.437 102.242 131.647C102.834 132.062 102.972 132.871 102.552 133.455C102.296 133.81 101.891 134 101.48 134Z" fill="#700043"/>
<path fill-rule="evenodd" clip-rule="evenodd" d="M32.795 133C32.795 133 38.1447 125.971 46.5133 128.099C46.5133 128.099 51.0386 122.776 60.8734 124.262C70.7081 125.747 75.795 133 75.795 133H32.795Z" fill="#9ED85B"/>
<path fill-rule="evenodd" clip-rule="evenodd" d="M32.9029 134L30.795 132.46C31.0328 132.155 36.5747 125.21 45.4217 126.952C47.0371 125.507 51.9721 121.994 60.6889 123.277C71.1618 124.819 76.5698 132.187 76.795 132.5L74.6251 133.957C74.5775 133.892 69.6053 127.173 60.2909 125.801C51.1844 124.461 47.021 128.99 46.8482 129.184C46.5202 129.551 46.0006 129.713 45.5141 129.592C37.9614 127.719 33.1057 133.743 32.9029 134Z" fill="#700043"/>
<path fill-rule="evenodd" clip-rule="evenodd" d="M145.483 135H18.1071C17.3826 135 16.795 134.329 16.795 133.5C16.795 132.672 17.3826 132 18.1071 132H145.483C146.207 132 146.795 132.672 146.795 133.5C146.795 134.329 146.207 135 145.483 135Z" fill="#700043"/>
<path fill-rule="evenodd" clip-rule="evenodd" d="M115.795 92.0095C115.795 92.0095 120.795 90.2483 122.04 93.7604C122.992 96.4492 125.795 95.9663 125.795 95.9663C125.795 95.9663 124.195 88.3107 115.795 92.0095Z" fill="#F4BC84"/>
<path fill-rule="evenodd" clip-rule="evenodd" d="M97.795 46.7271C97.795 46.7271 104.301 42.8792 107.548 41.3723C111.55 39.5143 116.589 45.0108 111.919 49.0222C106.659 53.5414 100.403 57 100.403 57L97.795 46.7271Z" fill="#FFDBB3"/>
<path fill-rule="evenodd" clip-rule="evenodd" d="M111.506 41C111.938 42.5281 111.575 44.337 109.832 45.9234C106.101 49.3195 101.862 52.1389 99.795 53.4437L100.647 57C100.647 57 106.789 53.4015 111.954 48.6994C115.025 45.9037 113.818 42.4183 111.506 41Z" fill="#EDB182"/>
<path fill-rule="evenodd" clip-rule="evenodd" d="M100.516 58C100.113 58 99.7201 57.7852 99.5049 57.4013C99.1844 56.8309 99.3772 56.1026 99.9353 55.7749C99.9955 55.7396 106.023 52.1831 111.021 47.6281C112.562 46.223 112.896 44.4849 111.913 42.9783C111.133 41.7844 109.505 40.9092 108.019 41.6408C104.928 43.1628 98.6333 47.108 98.5702 47.1476C98.0214 47.4919 97.304 47.3165 96.9674 46.7556C96.6306 46.1948 96.8025 45.461 97.3508 45.1169C97.6131 44.9523 103.811 41.068 107.008 39.4936C109.352 38.3396 112.294 39.2692 113.851 41.6556C115.094 43.5603 115.505 46.7334 112.572 49.4067C107.387 54.1316 101.35 57.6925 101.095 57.8419C100.913 57.9491 100.713 58 100.516 58Z" fill="#700043"/>
<path fill-rule="evenodd" clip-rule="evenodd" d="M98.6662 62.0414C99.9714 61.1189 106.104 59.0149 108.118 60.5366C110.073 62.0144 111.724 67.0351 104.533 69.4574C96.8753 72.0368 94.8636 64.7284 98.6662 62.0414Z" fill="#FFDBB3"/>
<path fill-rule="evenodd" clip-rule="evenodd" d="M106.22 67.2578C100.839 69.1086 98.2425 65.9801 98.4886 63C94.9278 65.8493 96.9991 73.0399 104.543 70.4452C108.302 69.1521 109.646 67.1349 109.795 65.2872C108.976 66.0288 107.816 66.7088 106.22 67.2578Z" fill="#EDB182"/>
<path fill-rule="evenodd" clip-rule="evenodd" d="M100.359 72.7952C101.791 72.1545 108.101 71.2615 109.759 73.0689C111.369 74.8243 112.022 79.8886 104.632 80.8935C96.7625 81.9635 96.1887 74.6616 100.359 72.7952Z" fill="#FFDBB3"/>
<path fill-rule="evenodd" clip-rule="evenodd" d="M106.287 77.6976C101.321 78.402 99.2599 75.6321 99.4585 73C96.3256 75.5409 97.385 81.9172 104.636 80.8888C109.165 80.2464 110.674 78.0152 110.795 75.9605C109.83 76.763 108.382 77.4005 106.287 77.6976Z" fill="#EDB182"/>
<path fill-rule="evenodd" clip-rule="evenodd" d="M101.301 82.6963C102.7 82.0479 107.119 81.4433 109.084 82.8891C111.119 84.3869 112.699 89.8754 105.477 90.8922C97.7861 91.9751 97.2251 84.5851 101.301 82.6963Z" fill="#FFDBB3"/>
<path fill-rule="evenodd" clip-rule="evenodd" d="M106.944 87.8231C102.06 88.5428 100.055 85.6873 100.281 83C97.3922 85.6536 98.5054 91.9147 105.478 90.8872C109.475 90.298 110.774 88.2762 110.795 86.3214C109.959 87.0166 108.718 87.5614 106.944 87.8231Z" fill="#F4BC84"/>
<path fill-rule="evenodd" clip-rule="evenodd" d="M100.883 73.8356C99.4341 74.4834 98.6782 76.0913 99.125 77.5761C99.6522 79.3284 101.653 80.1453 104.475 79.7619C107.149 79.3985 108.853 78.437 109.402 76.9812C109.842 75.8135 109.446 74.4937 108.851 73.8447C107.762 72.6584 102.257 73.2216 100.883 73.8356ZM103.149 82C99.5057 82 97.5943 80.1185 97.0105 78.1782C96.259 75.6807 97.5284 72.9766 99.9631 71.8879C101.488 71.2061 108.326 70.056 110.494 72.4171C111.51 73.5237 112.249 75.6549 111.47 77.7194C110.88 79.2851 109.24 81.2788 104.78 81.8847C104.202 81.9632 103.658 82 103.149 82Z" fill="#700043"/>
<path fill-rule="evenodd" clip-rule="evenodd" d="M101.801 83.7503C100.381 84.4049 99.6404 86.0298 100.078 87.5299C100.595 89.3005 102.555 90.1259 105.321 89.7385C107.018 89.5009 109.13 88.8564 109.561 87.1349C109.894 85.8016 109.082 84.3346 108.393 83.8303C106.882 82.7245 102.988 83.2033 101.801 83.7503ZM104.022 92C100.451 92 98.5782 90.0989 98.0062 88.1383C97.2698 85.6147 98.5137 82.8823 100.9 81.7823C102.433 81.0752 107.266 80.324 109.665 82.0808C111.072 83.1105 112.201 85.4794 111.655 87.6618C111.328 88.9686 110.109 91.2545 105.62 91.8835C105.053 91.9628 104.521 92 104.022 92Z" fill="#EDB182"/>
<path fill-rule="evenodd" clip-rule="evenodd" d="M94.795 87.9803C94.795 87.9803 99.6384 85.8658 101.258 90.2894C102.167 92.7692 104.795 91.8225 104.795 91.8225C104.795 91.8225 103.195 84.3885 94.795 87.9803Z" fill="#F4BC84"/>
<path fill-rule="evenodd" clip-rule="evenodd" d="M106.795 88.9471C106.795 88.9471 112.066 87.0888 113.101 91.2338C113.803 94.0428 116.795 92.6594 116.795 92.6594C116.795 92.6594 115.195 85.4769 106.795 88.9471Z" fill="#F4BC84"/>
</svg>
