

<svg width="58" height="58" viewBox="0 0 58 58" fill="none" xmlns="http://www.w3.org/2000/svg">
    <rect width="58" height="58" rx="29" fill="#EBEBEB"/>
    <g clip-path="url(#clip0_14868_8015)">
        <path d="M29 8.5C24.4315 8.5 20.6211 12.1801 20.6211 16.8789C20.6211 18.6665 21.1583 20.2605 22.1892 21.7542L28.3588 31.3813C28.6581 31.8493 29.3425 31.8484 29.6412 31.3813L35.8376 21.7215C36.8463 20.2955 37.3789 18.6211 37.3789 16.8789C37.3789 12.2588 33.6201 8.5 29 8.5ZM29 20.6875C26.9 20.6875 25.1914 18.9789 25.1914 16.8789C25.1914 14.7789 26.9 13.0703 29 13.0703C31.1 13.0703 32.8086 14.7789 32.8086 16.8789C32.8086 18.9789 31.1 20.6875 29 20.6875Z" fill="#D46A6A"/>
        <path d="M34.9548 26.0039L31.1193 32.0005C30.1264 33.5484 27.868 33.5433 26.88 32.002L23.0382 26.0055C19.658 26.787 17.5742 28.2187 17.5742 29.9296C17.5742 32.8983 23.4612 34.4999 29 34.4999C34.5388 34.4999 40.4258 32.8983 40.4258 29.9296C40.4258 28.2175 38.3391 26.785 34.9548 26.0039Z" fill="#D46A6A"/>
    </g>
    <path d="M22.1084 42.4512H21.7715C21.7422 42.334 21.6885 42.1956 21.6104 42.0361C21.5355 41.8734 21.4508 41.7204 21.3564 41.5771C21.2588 41.4274 21.1514 41.2972 21.0342 41.1865C20.9202 41.0726 20.8096 41.0075 20.7021 40.9912C20.6012 40.9782 20.4743 40.9684 20.3213 40.9619C20.1683 40.9554 20.0267 40.9521 19.8965 40.9521H19.6133V46.4941C19.6133 46.6016 19.6361 46.7008 19.6816 46.792C19.7272 46.8799 19.807 46.9482 19.9209 46.9971C19.9795 47.0199 20.1016 47.0508 20.2871 47.0898C20.4759 47.1289 20.6224 47.1501 20.7266 47.1533V47.5H17.4551V47.1533C17.5462 47.1468 17.6846 47.1338 17.8701 47.1143C18.0589 47.0947 18.1891 47.0703 18.2607 47.041C18.3682 46.9987 18.4463 46.9385 18.4951 46.8604C18.5472 46.779 18.5732 46.6715 18.5732 46.5381V40.9521H18.29C18.1891 40.9521 18.0638 40.9554 17.9141 40.9619C17.7643 40.9652 17.6211 40.9749 17.4844 40.9912C17.377 41.0042 17.2646 41.0693 17.1475 41.1865C17.0335 41.3005 16.9277 41.4307 16.8301 41.5771C16.7324 41.7236 16.6462 41.8799 16.5713 42.0459C16.4964 42.2087 16.4443 42.3438 16.415 42.4512H16.0732V40.5713H22.1084V42.4512ZM26.2295 43.3057C26.2295 43.4717 26.1888 43.6198 26.1074 43.75C26.026 43.877 25.9007 43.9404 25.7314 43.9404C25.5492 43.9404 25.4092 43.8932 25.3115 43.7988C25.2171 43.7044 25.1699 43.6003 25.1699 43.4863C25.1699 43.4147 25.1748 43.3496 25.1846 43.291C25.1976 43.2324 25.209 43.1738 25.2188 43.1152C25.0658 43.1152 24.8867 43.1771 24.6816 43.3008C24.4766 43.4245 24.3024 43.6003 24.1592 43.8281V46.6309C24.1592 46.7448 24.1803 46.8376 24.2227 46.9092C24.2682 46.9808 24.3382 47.0345 24.4326 47.0703C24.514 47.1029 24.6182 47.1273 24.7451 47.1436C24.8753 47.1598 24.9876 47.1712 25.082 47.1777V47.5H22.543V47.1777C22.6178 47.1712 22.6943 47.1647 22.7725 47.1582C22.8538 47.1517 22.9238 47.1387 22.9824 47.1191C23.0736 47.0898 23.1403 47.0394 23.1826 46.9678C23.2282 46.8929 23.251 46.7969 23.251 46.6797V43.7061C23.251 43.6051 23.2266 43.5059 23.1777 43.4082C23.1322 43.3105 23.0671 43.2324 22.9824 43.1738C22.9206 43.1348 22.8473 43.1071 22.7627 43.0908C22.6781 43.0713 22.5869 43.0583 22.4893 43.0518V42.7344L24.0908 42.627L24.1592 42.6953V43.374H24.1836C24.3854 43.1104 24.61 42.9102 24.8574 42.7734C25.1048 42.6367 25.3311 42.5684 25.5361 42.5684C25.7412 42.5684 25.9072 42.6351 26.0342 42.7686C26.1644 42.902 26.2295 43.0811 26.2295 43.3057ZM31.2051 47.4121C31.0521 47.4674 30.917 47.5114 30.7998 47.5439C30.6859 47.5798 30.5557 47.5977 30.4092 47.5977C30.1553 47.5977 29.9518 47.5391 29.7988 47.4219C29.6491 47.3014 29.5531 47.1273 29.5107 46.8994H29.4814C29.2699 47.1338 29.042 47.3128 28.7979 47.4365C28.557 47.5602 28.2656 47.6221 27.9238 47.6221C27.5625 47.6221 27.2646 47.5114 27.0303 47.29C26.7992 47.0687 26.6836 46.779 26.6836 46.4209C26.6836 46.2354 26.7096 46.0693 26.7617 45.9229C26.8138 45.7764 26.8919 45.6445 26.9961 45.5273C27.0775 45.4297 27.1849 45.3434 27.3184 45.2686C27.4518 45.1904 27.5771 45.1286 27.6943 45.083C27.8408 45.0277 28.137 44.9251 28.583 44.7754C29.0322 44.6257 29.335 44.5085 29.4912 44.4238V43.9404C29.4912 43.8981 29.4814 43.8167 29.4619 43.6963C29.4456 43.5758 29.4082 43.4619 29.3496 43.3545C29.2845 43.234 29.1917 43.1299 29.0713 43.042C28.9541 42.9508 28.7865 42.9053 28.5684 42.9053C28.4186 42.9053 28.2786 42.9313 28.1484 42.9834C28.0215 43.0322 27.932 43.0843 27.8799 43.1396C27.8799 43.2048 27.8945 43.3008 27.9238 43.4277C27.9564 43.5547 27.9727 43.6719 27.9727 43.7793C27.9727 43.8932 27.9206 43.9974 27.8164 44.0918C27.7155 44.1862 27.5739 44.2334 27.3916 44.2334C27.2288 44.2334 27.1084 44.1764 27.0303 44.0625C26.9554 43.9453 26.918 43.8151 26.918 43.6719C26.918 43.5221 26.9701 43.3789 27.0742 43.2422C27.1816 43.1055 27.32 42.9834 27.4893 42.876C27.6357 42.7848 27.8132 42.7083 28.0215 42.6465C28.2298 42.5814 28.4333 42.5488 28.6318 42.5488C28.9053 42.5488 29.1429 42.5684 29.3447 42.6074C29.5498 42.6432 29.7354 42.723 29.9014 42.8467C30.0674 42.9671 30.1927 43.1315 30.2773 43.3398C30.3652 43.5449 30.4092 43.8102 30.4092 44.1357C30.4092 44.6012 30.4043 45.0146 30.3945 45.376C30.3848 45.734 30.3799 46.1263 30.3799 46.5527C30.3799 46.6797 30.401 46.7806 30.4434 46.8555C30.4889 46.9303 30.5573 46.9938 30.6484 47.0459C30.6973 47.0752 30.7738 47.0915 30.8779 47.0947C30.9854 47.098 31.0944 47.0996 31.2051 47.0996V47.4121ZM29.501 44.834C29.2243 44.9154 28.9818 44.9951 28.7734 45.0732C28.5651 45.1514 28.3714 45.249 28.1924 45.3662C28.0296 45.4769 27.901 45.6087 27.8066 45.7617C27.7122 45.9115 27.665 46.0905 27.665 46.2988C27.665 46.569 27.735 46.7676 27.875 46.8945C28.0182 47.0215 28.1989 47.085 28.417 47.085C28.6481 47.085 28.8516 47.0296 29.0273 46.9189C29.2031 46.805 29.3512 46.6715 29.4717 46.5186L29.501 44.834ZM33.9102 47.627C33.2135 47.627 32.6683 47.3958 32.2744 46.9336C31.8805 46.4714 31.6836 45.8512 31.6836 45.0732C31.6836 44.7347 31.7357 44.4189 31.8398 44.126C31.9473 43.8298 32.1019 43.5612 32.3037 43.3203C32.4958 43.0892 32.7367 42.9036 33.0264 42.7637C33.3161 42.6204 33.6318 42.5488 33.9736 42.5488C34.4456 42.5488 34.8298 42.6628 35.126 42.8906C35.4222 43.1152 35.5703 43.4229 35.5703 43.8135C35.5703 43.9762 35.5312 44.1211 35.4531 44.248C35.375 44.3717 35.2464 44.4336 35.0674 44.4336C34.8753 44.4336 34.7256 44.3848 34.6182 44.2871C34.514 44.1895 34.4619 44.0804 34.4619 43.96C34.4619 43.8135 34.4814 43.6637 34.5205 43.5107C34.5596 43.3545 34.5824 43.2406 34.5889 43.1689C34.5303 43.068 34.4424 43.0013 34.3252 42.9688C34.2113 42.9329 34.0876 42.915 33.9541 42.915C33.7979 42.915 33.6481 42.9492 33.5049 43.0176C33.3649 43.0827 33.2282 43.2048 33.0947 43.3838C32.9743 43.5465 32.8766 43.7663 32.8018 44.043C32.7269 44.3197 32.6895 44.6501 32.6895 45.0342C32.6895 45.6396 32.8229 46.1344 33.0898 46.5186C33.36 46.8994 33.7132 47.0898 34.1494 47.0898C34.4652 47.0898 34.7288 47.0133 34.9404 46.8604C35.1553 46.7074 35.3538 46.4779 35.5361 46.1719L35.8486 46.377C35.6338 46.7611 35.3506 47.0654 34.999 47.29C34.6475 47.5146 34.2845 47.627 33.9102 47.627ZM41.3271 47.5H39.8721C39.6182 47.1322 39.3464 46.7383 39.0566 46.3184C38.7669 45.8984 38.4658 45.4899 38.1533 45.0928L37.7529 45.4688V46.6113C37.7529 46.7285 37.7741 46.8262 37.8164 46.9043C37.8587 46.9792 37.9271 47.0345 38.0215 47.0703C38.0996 47.1029 38.1745 47.1273 38.2461 47.1436C38.3177 47.1598 38.4007 47.1712 38.4951 47.1777V47.5H36.1318V47.1777C36.2067 47.1712 36.2848 47.1647 36.3662 47.1582C36.4476 47.1484 36.516 47.1354 36.5713 47.1191C36.6624 47.0898 36.7308 47.0394 36.7764 46.9678C36.8219 46.8929 36.8447 46.7969 36.8447 46.6797V41.084C36.8447 40.9635 36.8187 40.8512 36.7666 40.7471C36.7178 40.6396 36.6527 40.5583 36.5713 40.5029C36.5029 40.4508 36.3955 40.4167 36.249 40.4004C36.1058 40.3841 35.9902 40.3727 35.9023 40.3662V40.0537L37.6846 39.9414L37.7529 40.0146V45.1074C38.0068 44.8535 38.2803 44.5817 38.5732 44.292C38.8695 43.999 39.1185 43.7386 39.3203 43.5107C39.3464 43.4814 39.374 43.444 39.4033 43.3984C39.4359 43.3496 39.4521 43.3105 39.4521 43.2812C39.4521 43.1934 39.3805 43.1283 39.2373 43.0859C39.0973 43.0436 38.9622 43.0143 38.832 42.998V42.6855H40.9512V42.9883C40.6777 43.0697 40.4352 43.1722 40.2236 43.2959C40.0153 43.4163 39.8558 43.5254 39.7451 43.623C39.667 43.6882 39.5563 43.7939 39.4131 43.9404C39.2699 44.0869 39.0697 44.279 38.8125 44.5166C39.0794 44.8454 39.3789 45.2393 39.7109 45.6982C40.0462 46.1572 40.2904 46.4893 40.4434 46.6943C40.5866 46.8864 40.7152 47.0117 40.8291 47.0703C40.943 47.1289 41.109 47.1647 41.3271 47.1777V47.5Z" fill="#D46A6A"/>
    <defs>
        <clipPath id="clip0_14868_8015">
            <rect width="26" height="26" fill="white" transform="translate(16 8.5)"/>
        </clipPath>
    </defs>
</svg>
