<svg width="49" height="49" viewBox="0 0 49 49" fill="none" xmlns="http://www.w3.org/2000/svg">
<path d="M7.14583 11.2292L19.3958 29.6042M19.3958 29.6042L28.5833 42.875M19.3958 29.6042L8.16667 40.8333M29.6042 19.3998V19.3958M18.375 42.875H30.625C36.3997 42.875 39.2871 42.875 41.081 41.081C42.875 39.2871 42.875 36.3997 42.875 30.625V18.375C42.875 12.6003 42.875 9.71294 41.081 7.91897C39.2871 6.125 36.3997 6.125 30.625 6.125H18.375C12.6003 6.125 9.71294 6.125 7.91897 7.91897C6.125 9.71294 6.125 12.6003 6.125 18.375V30.625C6.125 36.3997 6.125 39.2871 7.91897 41.081C9.71294 42.875 12.6003 42.875 18.375 42.875ZM22.9206 16.6012C20.9511 20.979 25.7594 27.2088 28.2382 30.0031C28.9738 30.8323 30.2346 30.8323 30.9702 30.0031C33.4489 27.2088 38.2572 20.979 36.2877 16.6012C33.6776 10.7996 25.5307 10.7996 22.9206 16.6012Z" stroke="#D46A6A" stroke-width="2.8" stroke-linecap="round" stroke-linejoin="round"/>
</svg>
