<svg width="46" height="46" viewBox="0 0 46 46" fill="none" xmlns="http://www.w3.org/2000/svg">
<path d="M44.1 22.1765H42.2V20.2941C42.2 19.7949 41.9998 19.3161 41.6435 18.9631C41.2872 18.6101 40.8039 18.4118 40.3 18.4118C39.7961 18.4118 39.3128 18.6101 38.9565 18.9631C38.6002 19.3161 38.4 19.7949 38.4 20.2941V22.1765H36.5C35.9961 22.1765 35.5128 22.3748 35.1565 22.7278C34.8002 23.0808 34.6 23.5596 34.6 24.0588C34.6 24.5581 34.8002 25.0368 35.1565 25.3898C35.5128 25.7429 35.9961 25.9412 36.5 25.9412H38.4V27.8235C38.4 28.3228 38.6002 28.8015 38.9565 29.1546C39.3128 29.5076 39.7961 29.7059 40.3 29.7059C40.8039 29.7059 41.2872 29.5076 41.6435 29.1546C41.9998 28.8015 42.2 28.3228 42.2 27.8235V25.9412H44.1C44.6039 25.9412 45.0872 25.7429 45.4435 25.3898C45.7998 25.0368 46 24.5581 46 24.0588C46 23.5596 45.7998 23.0808 45.4435 22.7278C45.0872 22.3748 44.6039 22.1765 44.1 22.1765ZM29.47 25.4141C30.4838 24.5447 31.2969 23.4694 31.8543 22.2612C32.4116 21.053 32.7 19.7402 32.7 18.4118C32.7 15.9156 31.6991 13.5217 29.9175 11.7566C28.1359 9.99159 25.7196 9 23.2 9C20.6804 9 18.2641 9.99159 16.4825 11.7566C14.7009 13.5217 13.7 15.9156 13.7 18.4118C13.7 19.7402 13.9884 21.053 14.5457 22.2612C15.1031 23.4694 15.9162 24.5447 16.93 25.4141C14.2703 26.6073 12.0137 28.5342 10.4301 30.9643C8.84644 33.3945 8.0028 36.2251 8 39.1176C8 39.6169 8.20018 40.0957 8.5565 40.4487C8.91282 40.8017 9.39609 41 9.9 41C10.4039 41 10.8872 40.8017 11.2435 40.4487C11.5998 40.0957 11.8 39.6169 11.8 39.1176C11.8 36.1223 13.0011 33.2496 15.139 31.1315C17.2769 29.0134 20.1765 27.8235 23.2 27.8235C26.2235 27.8235 29.1231 29.0134 31.261 31.1315C33.3989 33.2496 34.6 36.1223 34.6 39.1176C34.6 39.6169 34.8002 40.0957 35.1565 40.4487C35.5128 40.8017 35.9961 41 36.5 41C37.0039 41 37.4872 40.8017 37.8435 40.4487C38.1998 40.0957 38.4 39.6169 38.4 39.1176C38.3972 36.2251 37.5536 33.3945 35.9699 30.9643C34.3863 28.5342 32.1297 26.6073 29.47 25.4141ZM23.2 24.0588C22.0726 24.0588 20.9706 23.7276 20.0332 23.1071C19.0959 22.4866 18.3653 21.6047 17.9339 20.5728C17.5025 19.5409 17.3896 18.4055 17.6095 17.3101C17.8295 16.2147 18.3723 15.2084 19.1695 14.4187C19.9667 13.6289 20.9823 13.0911 22.088 12.8732C23.1937 12.6553 24.3398 12.7672 25.3813 13.1946C26.4228 13.622 27.3131 14.3458 27.9394 15.2744C28.5657 16.2031 28.9 17.2949 28.9 18.4118C28.9 19.9095 28.2995 21.3458 27.2305 22.4048C26.1616 23.4639 24.7117 24.0588 23.2 24.0588Z" fill="#D46A6A"/>
</svg>
