<svg width="44" height="43" viewBox="0 0 44 43" fill="none" xmlns="http://www.w3.org/2000/svg">
<g clip-path="url(#clip0_13502_5260)">
<path d="M6.80013 13.9583C6.80013 11.5824 7.74395 9.30385 9.42397 7.62384C11.104 5.94382 13.3826 5 15.7585 5C18.1344 5 20.4129 5.94382 22.093 7.62384C23.773 9.30385 24.7168 11.5824 24.7168 13.9583C24.7168 16.3342 23.773 18.6128 22.093 20.2928C20.4129 21.9728 18.1344 22.9167 15.7585 22.9167C13.3826 22.9167 11.104 21.9728 9.42397 20.2928C7.74395 18.6128 6.80013 16.3342 6.80013 13.9583ZM9.48763 26.5C7.11173 26.5 4.83315 27.4438 3.15313 29.1238C1.47312 30.8039 0.529297 33.0824 0.529297 35.4583L0.529297 39.0417H30.9876V35.4583C30.9876 33.0824 30.0438 30.8039 28.3638 29.1238C26.6838 27.4438 24.4052 26.5 22.0293 26.5H9.48763ZM43.5293 39.0417H34.571V35.4583C34.571 31.9485 33.1305 28.7754 30.8085 26.5H34.571C35.7474 26.5 36.9123 26.7317 37.9992 27.1819C39.086 27.6321 40.0736 28.292 40.9055 29.1238C41.7373 29.9557 42.3972 30.9433 42.8474 32.0301C43.2976 33.117 43.5293 34.2819 43.5293 35.4583V39.0417ZM28.3001 22.9167C27.2065 22.9172 26.1219 22.7174 25.1002 22.3272C27.1653 20.0294 28.3054 17.0477 28.3001 13.9583C28.3049 10.8687 27.1642 7.88696 25.0984 5.58946C26.3258 5.12075 27.6412 4.92776 28.9515 5.02414C30.2618 5.12053 31.5348 5.50394 32.6804 6.14721C33.826 6.79047 34.8161 7.67784 35.5804 8.74642C36.3448 9.815 36.8648 11.0386 37.1035 12.3306C37.3422 13.6225 37.2939 14.9512 36.9618 16.2223C36.6298 17.4935 36.0222 18.6761 35.1822 19.6863C34.3421 20.6964 33.2901 21.5095 32.1008 22.0677C30.9115 22.626 29.614 22.9158 28.3001 22.9167Z" fill="#D46A6A"/>
</g>
<defs>
<clipPath id="clip0_13502_5260">
<rect width="43" height="43" fill="white" transform="translate(0.529297)"/>
</clipPath>
</defs>
</svg>
