<svg width="56" height="55" viewBox="0 0 56 55" fill="none" xmlns="http://www.w3.org/2000/svg">
<g clip-path="url(#clip0_13474_3332)">
<path d="M55.5289 20.3857V36.3617C55.3624 36.0427 55.1822 35.703 54.988 35.3424C54.7939 34.9818 54.5789 34.6282 54.3431 34.2815C54.1074 33.9348 53.8647 33.5881 53.6151 33.2414C53.3654 32.8947 53.1158 32.6035 52.8662 32.3677V25.7111L34.2276 35.0304L15.5889 25.7111V44.3497H35.5589L36.8902 47.0124H12.9263V20.3857H55.5289ZM52.5542 23.0484H15.901L34.2276 32.2221L52.5542 23.0484ZM50.5364 45.4106C51.2991 45.8128 51.9856 46.3051 52.5958 46.8876C53.206 47.47 53.733 48.1218 54.1767 48.8429C54.6205 49.5641 54.9533 50.3268 55.1752 51.1312C55.3971 51.9355 55.515 52.7815 55.5289 53.669V55.0003H52.8662V53.669C52.8662 52.7537 52.6928 51.8939 52.3461 51.0896C51.9994 50.2852 51.521 49.5849 50.9108 48.9886C50.3006 48.3922 49.5933 47.9138 48.789 47.5532C47.9847 47.1926 47.1248 47.0124 46.2095 47.0124C45.2943 47.0124 44.4344 47.1857 43.6301 47.5324C42.8257 47.8791 42.1185 48.3576 41.5083 48.9678C40.8981 49.5779 40.4196 50.2852 40.0729 51.0896C39.7262 51.8939 39.5529 52.7537 39.5529 53.669V55.0003H36.8902V53.669C36.8902 52.7953 37.0012 51.9563 37.2231 51.152C37.4449 50.3476 37.7778 49.5849 38.2216 48.8637C38.6653 48.1426 39.1923 47.4908 39.8025 46.9084C40.4127 46.3259 41.1061 45.8266 41.8827 45.4106C41.1338 44.7727 40.5583 44.0169 40.1561 43.1432C39.754 42.2695 39.5529 41.3403 39.5529 40.3557C39.5529 39.4404 39.7262 38.5806 40.0729 37.7763C40.4196 36.9719 40.8912 36.2716 41.4875 35.6752C42.0838 35.0789 42.7911 34.6005 43.6093 34.2399C44.4275 33.8793 45.2943 33.6991 46.2095 33.6991C47.1248 33.6991 47.9847 33.8724 48.789 34.2191C49.5933 34.5658 50.2937 35.0443 50.89 35.6544C51.4863 36.2646 51.9648 36.9719 52.3253 37.7763C52.6859 38.5806 52.8662 39.4404 52.8662 40.3557C52.8662 41.3265 52.6651 42.2487 52.2629 43.1224C51.8608 43.9961 51.2852 44.7588 50.5364 45.4106ZM42.2156 40.3557C42.2156 40.9104 42.3196 41.4305 42.5276 41.9159C42.7356 42.4012 43.0199 42.8242 43.3805 43.1848C43.741 43.5454 44.164 43.8296 44.6494 44.0377C45.1348 44.2457 45.6548 44.3497 46.2095 44.3497C46.7643 44.3497 47.2843 44.2457 47.7697 44.0377C48.2551 43.8296 48.6781 43.5454 49.0386 43.1848C49.3992 42.8242 49.6835 42.4012 49.8915 41.9159C50.0995 41.4305 50.2035 40.9104 50.2035 40.3557C50.2035 39.801 50.0995 39.2809 49.8915 38.7956C49.6835 38.3102 49.3992 37.8872 49.0386 37.5266C48.6781 37.1661 48.2551 36.8818 47.7697 36.6737C47.2843 36.4657 46.7643 36.3617 46.2095 36.3617C45.6548 36.3617 45.1348 36.4657 44.6494 36.6737C44.164 36.8818 43.741 37.1661 43.3805 37.5266C43.0199 37.8872 42.7356 38.3102 42.5276 38.7956C42.3196 39.2809 42.2156 39.801 42.2156 40.3557Z" fill="#D46A6A"/>
</g>
<path d="M13 29C15.1217 29 17.1566 28.1571 18.6569 26.6569C20.1571 25.1566 21 23.1217 21 21C21 18.8783 20.1571 16.8434 18.6569 15.3431C17.1566 13.8429 15.1217 13 13 13C10.8783 13 8.84344 13.8429 7.34315 15.3431C5.84286 16.8434 5 18.8783 5 21C5 23.1217 5.84286 25.1566 7.34315 26.6569C8.84344 28.1571 10.8783 29 13 29Z" fill="#D46A6A"/>
<defs>
<clipPath id="clip0_13474_3332">
<rect width="42.6026" height="42.6026" fill="white" transform="translate(12.9263 12.3975)"/>
</clipPath>
</defs>
</svg>
