<svg width="51" height="50" viewBox="0 0 51 50" fill="none" xmlns="http://www.w3.org/2000/svg">
<path d="M44.5146 22.917V27.0837C44.5146 32.9762 44.5146 35.9225 42.6841 37.7531C40.8535 39.5837 37.9072 39.5837 32.0146 39.5837H19.5146C13.6221 39.5837 10.6758 39.5837 8.84523 37.7531C7.01465 35.9225 7.01465 32.9762 7.01465 27.0837V22.917M44.5146 22.917C44.5146 17.0244 44.5146 14.0782 42.6841 12.2476C40.8535 10.417 37.9072 10.417 32.0146 10.417H19.5146C13.6221 10.417 10.6758 10.417 8.84523 12.2476C7.01465 14.0782 7.01465 17.0244 7.01465 22.917M44.5146 22.917L7.01465 22.917M7.01465 18.7503H44.5146M23.6813 33.3337H15.348" stroke="#D46A6A" stroke-width="2" stroke-linecap="round" stroke-linejoin="round"/>
</svg>
