<svg width="41" height="39" viewBox="0 0 41 39" fill="none" xmlns="http://www.w3.org/2000/svg">
<path d="M15.2387 5.25C15.2387 4.56056 15.3748 3.87787 15.6392 3.24091C15.9036 2.60395 16.2912 2.0252 16.7798 1.53769C17.2683 1.05018 17.8484 0.66347 18.4867 0.399632C19.1251 0.135795 19.8092 0 20.5002 0C21.1911 0 21.8753 0.135795 22.5136 0.399632C23.152 0.66347 23.732 1.05018 24.2206 1.53769C24.7091 2.0252 25.0967 2.60395 25.3611 3.24091C25.6255 3.87787 25.7616 4.56056 25.7616 5.25V33.75C25.7616 34.4394 25.6255 35.1221 25.3611 35.7591C25.0967 36.396 24.7091 36.9748 24.2206 37.4623C23.732 37.9498 23.152 38.3365 22.5136 38.6004C21.8753 38.8642 21.1911 39 20.5002 39C19.8092 39 19.1251 38.8642 18.4867 38.6004C17.8484 38.3365 17.2683 37.9498 16.7798 37.4623C16.2912 36.9748 15.9036 36.396 15.6392 35.7591C15.3748 35.1221 15.2387 34.4394 15.2387 33.75V5.25ZM20.5002 3C19.9021 3 19.3286 3.23705 18.9057 3.65901C18.4828 4.08097 18.2453 4.65326 18.2453 5.25V33.75C18.2453 34.3467 18.4828 34.919 18.9057 35.341C19.3286 35.7629 19.9021 36 20.5002 36C21.0982 36 21.6718 35.7629 22.0946 35.341C22.5175 34.919 22.7551 34.3467 22.7551 33.75V5.25C22.7551 4.65326 22.5175 4.08097 22.0946 3.65901C21.6718 3.23705 21.0982 3 20.5002 3ZM30.2714 14.25C30.2714 13.5606 30.4075 12.8779 30.6719 12.2409C30.9363 11.604 31.3239 11.0252 31.8125 10.5377C32.301 10.0502 32.881 9.66347 33.5194 9.39963C34.1577 9.13579 34.8419 9 35.5328 9C36.2238 9 36.908 9.13579 37.5463 9.39963C38.1847 9.66347 38.7647 10.0502 39.2533 10.5377C39.7418 11.0252 40.1294 11.604 40.3938 12.2409C40.6582 12.8779 40.7943 13.5606 40.7943 14.25V33.75C40.7943 34.4394 40.6582 35.1221 40.3938 35.7591C40.1294 36.396 39.7418 36.9748 39.2533 37.4623C38.7647 37.9498 38.1847 38.3365 37.5463 38.6004C36.908 38.8642 36.2238 39 35.5328 39C34.8419 39 34.1577 38.8642 33.5194 38.6004C32.881 38.3365 32.301 37.9498 31.8125 37.4623C31.3239 36.9748 30.9363 36.396 30.6719 35.7591C30.4075 35.1221 30.2714 34.4394 30.2714 33.75V14.25ZM35.5328 12C34.9348 12 34.3613 12.2371 33.9384 12.659C33.5155 13.081 33.2779 13.6533 33.2779 14.25V33.75C33.2779 34.3467 33.5155 34.919 33.9384 35.341C34.3613 35.7629 34.9348 36 35.5328 36C36.1309 36 36.7044 35.7629 37.1273 35.341C37.5502 34.919 37.7878 34.3467 37.7878 33.75V14.25C37.7878 13.6533 37.5502 13.081 37.1273 12.659C36.7044 12.2371 36.1309 12 35.5328 12ZM5.46749 18C4.07207 18 2.7338 18.5531 1.74709 19.5377C0.760383 20.5223 0.206055 21.8576 0.206055 23.25V33.75C0.206055 34.4394 0.342146 35.1221 0.606558 35.7591C0.87097 36.396 1.25852 36.9748 1.74709 37.4623C2.23566 37.9498 2.81568 38.3365 3.45403 38.6004C4.09237 38.8642 4.77655 39 5.46749 39C6.15843 39 6.84261 38.8642 7.48096 38.6004C8.1193 38.3365 8.69932 37.9498 9.18789 37.4623C9.67646 36.9748 10.064 36.396 10.3284 35.7591C10.5928 35.1221 10.7289 34.4394 10.7289 33.75V23.25C10.7289 21.8576 10.1746 20.5223 9.18789 19.5377C8.20118 18.5531 6.86291 18 5.46749 18ZM3.21259 23.25C3.21259 22.6533 3.45016 22.081 3.87304 21.659C4.29591 21.2371 4.86946 21 5.46749 21C6.06553 21 6.63907 21.2371 7.06195 21.659C7.48483 22.081 7.72239 22.6533 7.72239 23.25V33.75C7.72239 34.3467 7.48483 34.919 7.06195 35.341C6.63907 35.7629 6.06553 36 5.46749 36C4.86946 36 4.29591 35.7629 3.87304 35.341C3.45016 34.919 3.21259 34.3467 3.21259 33.75V23.25Z" fill="#D46A6A"/>
</svg>
