<svg width="24" height="24" viewBox="0 0 24 24" fill="none" xmlns="http://www.w3.org/2000/svg">
<path fill-rule="evenodd" clip-rule="evenodd" d="M15 6H9C8.73478 6 8.48043 6.10536 8.29289 6.29289C8.10536 6.48043 8 6.73478 8 7V17C8 17.2652 8.10536 17.5196 8.29289 17.7071C8.48043 17.8946 8.73478 18 9 18H15C15.2652 18 15.5196 17.8946 15.7071 17.7071C15.8946 17.5196 16 17.2652 16 17V7C16 6.73478 15.8946 6.48043 15.7071 6.29289C15.5196 6.10536 15.2652 6 15 6ZM9 4C8.20435 4 7.44129 4.31607 6.87868 4.87868C6.31607 5.44129 6 6.20435 6 7V17C6 17.7956 6.31607 18.5587 6.87868 19.1213C7.44129 19.6839 8.20435 20 9 20H15C15.7956 20 16.5587 19.6839 17.1213 19.1213C17.6839 18.5587 18 17.7956 18 17V7C18 6.20435 17.6839 5.44129 17.1213 4.87868C16.5587 4.31607 15.7956 4 15 4H9Z" fill="#D46A6A"/>
<path d="M2 6C2 5.73478 2.10536 5.48043 2.29289 5.29289C2.48043 5.10536 2.73478 5 3 5C3.26522 5 3.51957 5.10536 3.70711 5.29289C3.89464 5.48043 4 5.73478 4 6V18C4 18.2652 3.89464 18.5196 3.70711 18.7071C3.51957 18.8946 3.26522 19 3 19C2.73478 19 2.48043 18.8946 2.29289 18.7071C2.10536 18.5196 2 18.2652 2 18V6ZM20 6C20 5.73478 20.1054 5.48043 20.2929 5.29289C20.4804 5.10536 20.7348 5 21 5C21.2652 5 21.5196 5.10536 21.7071 5.29289C21.8946 5.48043 22 5.73478 22 6V18C22 18.2652 21.8946 18.5196 21.7071 18.7071C21.5196 18.8946 21.2652 19 21 19C20.7348 19 20.4804 18.8946 20.2929 18.7071C20.1054 18.5196 20 18.2652 20 18V6Z" fill="#D46A6A"/>
</svg>
