<svg width="26" height="24" viewBox="0 0 26 24" fill="none" xmlns="http://www.w3.org/2000/svg">
<path d="M13 0C9.21989 0 6.14453 2.8388 6.14453 6.32812C6.14453 9.81745 9.21989 12.6562 13 12.6562C16.7801 12.6562 19.8555 9.81745 19.8555 6.32812C19.8555 2.8388 16.7801 0 13 0ZM21.5295 16.7904C19.6526 15.0313 17.1645 14.0625 14.5234 14.0625H11.4766C8.83553 14.0625 6.34735 15.0313 4.47048 16.7904C2.60279 18.5409 1.57422 20.8515 1.57422 23.2969C1.57422 23.6852 1.91527 24 2.33594 24H23.6641C24.0847 24 24.4258 23.6852 24.4258 23.2969C24.4258 20.8515 23.3972 18.5409 21.5295 16.7904Z" fill="#D46A6A"/>
</svg>
