<svg width="48" height="47" viewBox="0 0 48 47" fill="none" xmlns="http://www.w3.org/2000/svg">
<path d="M17.683 40.7003H11.1382C8.82373 40.7003 6.6041 39.7942 4.96756 38.1814C3.33102 36.5685 2.41162 34.3811 2.41162 32.1002V12.7501C2.41162 10.4692 3.33102 8.28174 4.96756 6.66891C6.6041 5.05609 8.82373 4.15001 11.1382 4.15001H35.1361C37.4505 4.15001 39.6702 5.05609 41.3067 6.66891C42.9432 8.28174 43.8626 10.4692 43.8626 12.7501V19.2001M15.5014 2V6.30003M30.7728 2V6.30003M2.41162 14.9001H43.8626M38.4086 31.3326L35.1361 34.5577" stroke="#D46A6A" stroke-width="3" stroke-linecap="round" stroke-linejoin="round"/>
<path d="M35.1362 45.0001C41.1606 45.0001 46.0443 40.1872 46.0443 34.2501C46.0443 28.313 41.1606 23.5 35.1362 23.5C29.1118 23.5 24.228 28.313 24.228 34.2501C24.228 40.1872 29.1118 45.0001 35.1362 45.0001Z" stroke="#D46A6A" stroke-width="3" stroke-linecap="round" stroke-linejoin="round"/>
</svg>
