<svg width="25" height="24" viewBox="0 0 25 24" fill="none" xmlns="http://www.w3.org/2000/svg">
<path d="M13.8587 8.12793H9.40897C8.99633 8.12793 8.66178 8.46248 8.66178 8.87512C8.66178 9.28776 8.99628 9.6223 9.40897 9.6223H13.8587C14.2713 9.6223 14.6059 9.28776 14.6059 8.87512C14.6059 8.46248 14.2713 8.12793 13.8587 8.12793ZM13.8587 10.5687H9.40897C8.99633 10.5687 8.66178 10.9032 8.66178 11.3159C8.66178 11.7285 8.99628 12.063 9.40897 12.063H13.8587C14.2713 12.063 14.6059 11.7285 14.6059 11.3159C14.6059 10.9032 14.2713 10.5687 13.8587 10.5687ZM13.8587 13.0094H9.40897C8.99633 13.0094 8.66178 13.344 8.66178 13.7566C8.66178 14.1693 8.99628 14.5038 9.40897 14.5038H13.8587C14.2713 14.5038 14.6059 14.1693 14.6059 13.7566C14.6059 13.344 14.2713 13.0094 13.8587 13.0094ZM7.25445 8.12793H6.43676C6.02412 8.12793 5.68958 8.46248 5.68958 8.87512C5.68958 9.28776 6.02412 9.6223 6.43676 9.6223H7.25445C7.66709 9.6223 8.00164 9.28776 8.00164 8.87512C8.00164 8.46248 7.66709 8.12793 7.25445 8.12793ZM7.25445 10.5687H6.43676C6.02412 10.5687 5.68958 10.9032 5.68958 11.3159C5.68958 11.7285 6.02412 12.063 6.43676 12.063H7.25445C7.66709 12.063 8.00164 11.7285 8.00164 11.3159C8.00164 10.9032 7.66709 10.5687 7.25445 10.5687ZM7.25445 13.0094H6.43676C6.02412 13.0094 5.68958 13.344 5.68958 13.7566C5.68958 14.1693 6.02412 14.5038 6.43676 14.5038H7.25445C7.66709 14.5038 8.00164 14.1693 8.00164 13.7566C8.00164 13.344 7.66709 13.0094 7.25445 13.0094ZM7.25445 15.4502H6.43676C6.02412 15.4502 5.68958 15.7848 5.68958 16.1974C5.68958 16.6101 6.02412 16.9446 6.43676 16.9446H7.25445C7.66709 16.9446 8.00164 16.6101 8.00164 16.1974C8.00164 15.7847 7.66709 15.4502 7.25445 15.4502Z" fill="#7C7C7C"/>
<path d="M17.7439 14.9211V3.69375C17.7439 3.28111 17.4094 2.94656 16.9968 2.94656H14.6058V2.67C14.6058 2.25736 14.2713 1.92281 13.8586 1.92281H13.0888C12.688 0.803297 11.6167 0 10.361 0H10.0838C8.82818 0 7.75694 0.803297 7.35602 1.92286H6.83524C6.4226 1.92286 6.08805 2.25741 6.08805 2.67005V2.94661H3.44805C3.03541 2.94661 2.70087 3.28116 2.70087 3.6938V20.0741C2.70087 20.4868 3.03541 20.8213 3.44805 20.8213H12.9049C13.4891 22.6622 15.2141 24 17.2459 24C19.7565 24 21.7991 21.9575 21.7991 19.4468C21.799 17.1046 20.021 15.17 17.7439 14.9211ZM10.0838 1.49433H10.361C10.7561 1.49433 11.1132 1.659 11.3684 1.92286H9.07648C9.33162 1.659 9.68871 1.49433 10.0838 1.49433ZM7.58243 3.41723H13.1115V4.11773H7.58243V3.41723ZM13.8587 15.4502H9.40896C8.99632 15.4502 8.66177 15.7848 8.66177 16.1974C8.66177 16.6101 8.99632 16.9446 9.40896 16.9446H13.444C12.9901 17.6319 12.7172 18.4489 12.6943 19.327H4.19524V4.44094H6.08805V4.86492C6.08805 5.27756 6.4226 5.61211 6.83524 5.61211H13.8587C14.2713 5.61211 14.6059 5.27756 14.6059 4.86492V4.44094H16.2496V15.0038C15.6046 15.1484 15.0109 15.4301 14.5008 15.8168C14.3706 15.5976 14.1321 15.4502 13.8587 15.4502ZM17.2458 22.5057C15.5592 22.5057 14.187 21.1335 14.187 19.4469C14.187 17.7603 15.5592 16.3881 17.2458 16.3881C18.9324 16.3881 20.3046 17.7602 20.3046 19.4469C20.3046 21.1335 18.9324 22.5057 17.2458 22.5057Z" fill="#7C7C7C"/>
<path d="M19.0072 18.3413C18.7377 18.0288 18.2659 17.9939 17.9534 18.2633L16.9953 19.0892L16.7566 18.8846C16.4432 18.616 15.9716 18.6524 15.703 18.9656C15.4344 19.2789 15.4708 19.7506 15.7841 20.0192L16.5105 20.6418C16.6458 20.758 16.8184 20.8218 16.9967 20.8217C17.1706 20.8217 17.3444 20.7613 17.4846 20.6404L18.9292 19.3951C19.2416 19.1257 19.2766 18.6539 19.0072 18.3413Z" fill="#7C7C7C"/>
</svg>
