<svg width="43" height="42" viewBox="0 0 43 42" fill="none" xmlns="http://www.w3.org/2000/svg">
<path d="M25.0048 7C24.8972 6.03748 24.4386 5.14839 23.7167 4.5027C22.9948 3.85701 22.0603 3.50003 21.0918 3.5H14.9668C13.9983 3.50003 13.0638 3.85701 12.3419 4.5027C11.62 5.14839 11.1614 6.03748 11.0538 7H7.9668C6.92251 7 5.92099 7.41484 5.18256 8.15327C4.44414 8.89169 4.0293 9.89321 4.0293 10.9375V34.5625C4.0293 35.6068 4.44414 36.6083 5.18256 37.3467C5.92099 38.0852 6.92251 38.5 7.9668 38.5H22.9468C22.1962 37.7193 21.561 36.8353 21.0603 35.875H7.9668C7.6187 35.875 7.28486 35.7367 7.03872 35.4906C6.79258 35.2444 6.6543 34.9106 6.6543 34.5625V10.9375C6.6543 10.5894 6.79258 10.2556 7.03872 10.0094C7.28486 9.76328 7.6187 9.625 7.9668 9.625H11.6925C12.3995 10.6803 13.6018 11.375 14.9668 11.375H21.0918C22.4568 11.375 23.659 10.6803 24.366 9.625H28.0918C28.4399 9.625 28.7737 9.76328 29.0199 10.0094C29.266 10.2556 29.4043 10.5894 29.4043 10.9375V19.383C30.2727 19.25 31.1534 19.2166 32.0293 19.2832V10.9375C32.0293 9.89321 31.6145 8.89169 30.876 8.15327C30.1376 7.41484 29.1361 7 28.0918 7H25.0048ZM25.0205 7.168L25.0293 7.4375C25.0293 7.3465 25.0264 7.25667 25.0205 7.168ZM14.9668 6.125H21.0918C21.4399 6.125 21.7737 6.26328 22.0199 6.50942C22.266 6.75556 22.4043 7.0894 22.4043 7.4375C22.4043 7.7856 22.266 8.11944 22.0199 8.36558C21.7737 8.61172 21.4399 8.75 21.0918 8.75H14.9668C14.6187 8.75 14.2849 8.61172 14.0387 8.36558C13.7926 8.11944 13.6543 7.7856 13.6543 7.4375C13.6543 7.0894 13.7926 6.75556 14.0387 6.50942C14.2849 6.26328 14.6187 6.125 14.9668 6.125ZM21.454 24.682C22.3923 23.1505 23.6798 21.863 25.2113 20.9247L26.8318 19.3025C26.9607 19.1823 27.0642 19.0374 27.1359 18.8764C27.2076 18.7154 27.2462 18.5416 27.2493 18.3654C27.2524 18.1892 27.22 18.0141 27.154 17.8507C27.088 17.6873 26.9897 17.5388 26.8651 17.4142C26.7405 17.2896 26.592 17.1913 26.4286 17.1253C26.2652 17.0593 26.0901 17.0269 25.9139 17.03C25.7377 17.0331 25.5639 17.0716 25.4029 17.1434C25.2419 17.2151 25.097 17.3185 24.9768 17.4475L16.2793 26.145L12.8318 22.6975C12.583 22.4657 12.2539 22.3394 11.9139 22.3454C11.5739 22.3514 11.2494 22.4892 11.009 22.7297C10.7685 22.9701 10.6307 23.2946 10.6247 23.6346C10.6187 23.9746 10.745 24.3037 10.9768 24.5525L15.3518 28.9275C15.5979 29.1733 15.9315 29.3113 16.2793 29.3113C16.6271 29.3113 16.9607 29.1733 17.2068 28.9275L21.454 24.682ZM40.7793 30.625C40.7793 28.0723 39.7652 25.6241 37.9602 23.8191C36.1552 22.0141 33.707 21 31.1543 21C28.6016 21 26.1534 22.0141 24.3484 23.8191C22.5434 25.6241 21.5293 28.0723 21.5293 30.625C21.5293 33.1777 22.5434 35.6259 24.3484 37.4309C26.1534 39.2359 28.6016 40.25 31.1543 40.25C33.707 40.25 36.1552 39.2359 37.9602 37.4309C39.7652 35.6259 40.7793 33.1777 40.7793 30.625ZM32.0293 31.5L32.031 35.8802C32.031 36.1123 31.9389 36.3349 31.7748 36.499C31.6107 36.6631 31.3881 36.7552 31.156 36.7552C30.924 36.7552 30.7014 36.6631 30.5373 36.499C30.3732 36.3349 30.281 36.1123 30.281 35.8802V31.5H25.8973C25.6652 31.5 25.4427 31.4078 25.2786 31.2437C25.1145 31.0796 25.0223 30.8571 25.0223 30.625C25.0223 30.3929 25.1145 30.1704 25.2786 30.0063C25.4427 29.8422 25.6652 29.75 25.8973 29.75H30.2793V25.375C30.2793 25.1429 30.3715 24.9204 30.5356 24.7563C30.6997 24.5922 30.9222 24.5 31.1543 24.5C31.3864 24.5 31.6089 24.5922 31.773 24.7563C31.9371 24.9204 32.0293 25.1429 32.0293 25.375V29.75H36.399C36.6311 29.75 36.8537 29.8422 37.0178 30.0063C37.1819 30.1704 37.274 30.3929 37.274 30.625C37.274 30.8571 37.1819 31.0796 37.0178 31.2437C36.8537 31.4078 36.6311 31.5 36.399 31.5H32.0293Z" fill="#D46A6A"/>
</svg>
