<svg width="24" height="24" viewBox="0 0 24 24" fill="none" xmlns="http://www.w3.org/2000/svg">
<path d="M21 11V13C21 15.8284 21 17.2426 20.1213 18.1213C19.2426 19 17.8284 19 15 19H9C6.17157 19 4.75736 19 3.87868 18.1213C3 17.2426 3 15.8284 3 13V11M21 11C21 8.17157 21 6.75736 20.1213 5.87868C19.2426 5 17.8284 5 15 5H9C6.17157 5 4.75736 5 3.87868 5.87868C3 6.75736 3 8.17157 3 11M21 11L3 11M3 9H21M11 16H7" stroke="#D46A6A" stroke-width="1.2" stroke-linecap="round" stroke-linejoin="round"/>
</svg>
